<svg width="20" height="20" viewBox="0 0 20 20" fill="none" xmlns="http://www.w3.org/2000/svg">
<path d="M10.625 6.66635C10.625 6.32117 10.3451 6.04135 9.99996 6.04135C9.65478 6.04135 9.37496 6.32117 9.37496 6.66635V9.37468H6.66663C6.32145 9.37468 6.04163 9.65451 6.04163 9.99968C6.04163 10.3449 6.32145 10.6247 6.66663 10.6247H9.37496V13.333C9.37496 13.6782 9.65478 13.958 9.99996 13.958C10.3451 13.958 10.625 13.6782 10.625 13.333V10.6247H13.3333C13.6785 10.6247 13.9583 10.3449 13.9583 9.99968C13.9583 9.65451 13.6785 9.37468 13.3333 9.37468H10.625V6.66635Z" fill="#8E8E8E"/>
<path fill-rule="evenodd" clip-rule="evenodd" d="M9.99996 18.958C5.05241 18.958 1.04163 14.9472 1.04163 9.99968C1.04163 5.05213 5.05241 1.04135 9.99996 1.04135C14.9475 1.04135 18.9583 5.05213 18.9583 9.99968C18.9583 14.9472 14.9475 18.958 9.99996 18.958ZM2.29163 9.99968C2.29163 14.2569 5.74276 17.708 9.99996 17.708C14.2572 17.708 17.7083 14.2569 17.7083 9.99968C17.7083 5.74249 14.2572 2.29135 9.99996 2.29135C5.74276 2.29135 2.29163 5.74249 2.29163 9.99968Z" fill="#8E8E8E"/>
</svg>
