<svg width="24" height="24" viewBox="0 0 24 24" fill="none" xmlns="http://www.w3.org/2000/svg">
<rect x="0.5" y="0.5" width="23" height="23" rx="11.5" fill="white"/>
<rect x="0.5" y="0.5" width="23" height="23" rx="11.5" stroke="#E8E8E8"/>
<path d="M7.16634 7.99945C7.16634 7.72331 6.94248 7.49945 6.66634 7.49945C6.39019 7.49945 6.16634 7.72331 6.16634 7.99945L6.16635 15.9999C6.16635 16.276 6.39021 16.4999 6.66635 16.4999C6.9425 16.4999 7.16635 16.276 7.16635 15.9999L7.16634 7.99945Z" fill="#00212E"/>
<path fill-rule="evenodd" clip-rule="evenodd" d="M12.8317 11.4521L12.8317 11.4997H17.3317C17.6079 11.4997 17.8317 11.7235 17.8317 11.9997C17.8317 12.2758 17.6079 12.4997 17.3317 12.4997H12.8317L12.8317 12.5472C12.8317 13.1554 12.8318 13.6659 12.7783 14.0455C12.7254 14.4208 12.5961 14.8616 12.1609 15.0718C11.7185 15.2855 11.2952 15.1009 10.9775 14.8997C10.6586 14.6979 10.277 14.3699 9.82537 13.9818L9.1781 13.4255C8.91175 13.1967 8.67266 12.9913 8.50493 12.7997C8.32205 12.5909 8.16505 12.3341 8.16505 11.9997C8.16505 11.6653 8.32205 11.4085 8.50493 11.1996C8.67266 11.0081 8.91175 10.8027 9.17809 10.5738L9.82537 10.0176C10.277 9.62941 10.6586 9.30146 10.9775 9.09961C11.2952 8.89848 11.7185 8.71389 12.1609 8.92759C12.5961 9.1378 12.7254 9.57856 12.7783 9.95388C12.8318 10.3335 12.8317 10.844 12.8317 11.4521ZM9.85514 12.6888C9.55547 12.4313 9.37232 12.2723 9.25727 12.1409C9.20383 12.0799 9.18123 12.0423 9.17171 12.022C9.16496 12.0076 9.16501 12.0029 9.16504 12.0002V11.9992C9.16501 11.9965 9.16496 11.9918 9.17171 11.9774C9.18123 11.9571 9.20384 11.9194 9.25727 11.8584C9.37232 11.727 9.55547 11.568 9.85514 11.3105L10.4457 10.803C10.9372 10.3806 11.263 10.1023 11.5123 9.94457C11.6259 9.87266 11.6914 9.84659 11.7245 9.83768C11.7405 9.86938 11.7667 9.94171 11.7881 10.0934C11.8305 10.3946 11.8317 10.8334 11.8317 11.4921V12.5072C11.8317 13.166 11.8305 13.6048 11.7881 13.906C11.7667 14.0577 11.7405 14.13 11.7245 14.1617C11.6914 14.1528 11.6259 14.1267 11.5123 14.0548C11.263 13.897 10.9372 13.6188 10.4457 13.1964L9.85514 12.6888Z" fill="#00212E"/>
</svg>
