<svg width="95" height="36" viewBox="0 0 95 36" fill="none" xmlns="http://www.w3.org/2000/svg">
<path d="M53.683 4.95471C52.4764 4.95471 51.3491 5.1703 50.3012 5.6023C49.2527 6.03401 48.3516 6.62849 47.5976 7.3857C46.8286 6.62849 45.9269 6.03401 44.894 5.6023C43.8608 5.1703 42.7408 4.95471 41.5348 4.95471H40.0188C38.8725 4.95471 37.798 5.14786 36.7951 5.53413C35.7919 5.92041 34.9171 6.44638 34.1707 7.1127C33.4243 7.77987 32.836 8.56351 32.4061 9.46414C31.9764 10.3659 31.7612 11.331 31.7612 12.3609V32.3985H36.1276V12.3609C36.1276 11.5128 36.5122 10.786 37.2815 10.1796C38.0506 9.57436 38.963 9.27103 40.0188 9.27103H41.5348C42.6206 9.27103 43.5403 9.57436 44.2947 10.1796C45.0487 10.786 45.4257 11.5128 45.4257 12.3609H49.7924C49.7924 11.5128 50.1688 10.786 50.9231 10.1796C51.6772 9.57436 52.5975 9.27103 53.683 9.27103H55.199C56.2548 9.27103 57.1672 9.57436 57.9362 10.1796C58.7056 10.786 59.0902 11.5128 59.0902 12.3609V32.3985H63.4113V12.3609C63.4113 11.331 63.1924 10.3659 62.7551 9.46414C62.3176 8.56351 61.7293 7.77987 60.9906 7.1127C60.2512 6.44638 59.3877 5.92041 58.4001 5.53413C57.4122 5.14786 56.3453 4.95471 55.199 4.95471H53.683Z" fill="url(#paint0_linear_727_54853)"/>
<path d="M72.5653 4.49996C71.5394 4.49996 70.5784 4.69339 69.6809 5.07966C68.7835 5.46593 68.0032 5.99226 67.3394 6.65829C66.6758 7.3249 66.1518 8.10909 65.7671 9.01002C65.3825 9.91122 65.1904 10.8695 65.1904 11.8837V13.2016C65.1904 14.2164 65.3825 15.1668 65.7671 16.0526C66.1518 16.9385 66.6758 17.7224 67.3394 18.4038C68.0032 19.0858 68.7835 19.6194 69.6809 20.0057C70.5784 20.3919 71.5394 20.5851 72.5653 20.5851H85.5289C86.4029 20.5851 87.1309 20.8805 87.7118 21.471C88.2922 22.0618 88.5827 22.774 88.5827 23.6065V24.9244C88.5827 25.7575 88.2922 26.4769 87.7118 27.0824C87.1309 27.6885 86.4029 27.9913 85.5289 27.9913H67.3623V32.3076H85.5289C86.5542 32.3076 87.5155 32.1148 88.4132 31.7288C89.3101 31.3425 90.0986 30.8159 90.7772 30.1493C91.4559 29.4833 91.9874 28.6996 92.3721 27.7982C92.7567 26.8972 92.949 25.9392 92.949 24.9244V23.6065C92.949 22.592 92.7567 21.634 92.3721 20.7328C91.9874 19.8319 91.4559 19.0479 90.7772 18.3813C90.0986 17.715 89.3101 17.1885 88.4132 16.8028C87.5155 16.4165 86.5542 16.2231 85.5289 16.2231H72.5653C71.7204 16.2231 71.0006 15.9277 70.405 15.3369C69.8088 14.7464 69.5112 14.0343 69.5112 13.2016V11.8837C69.5112 11.0206 69.8088 10.2935 70.405 9.70274C71.0006 9.11197 71.7204 8.81718 72.5653 8.81718H90.7772V4.49996H72.5653Z" fill="url(#paint1_linear_727_54853)"/>
<path d="M9.22913 4.58646V8.84932H18.6616C19.8605 8.84932 20.8742 9.22966 21.7026 9.98971C22.5308 10.7503 22.9451 11.6489 22.9451 12.6862V24.4948C22.9451 25.575 22.5308 26.4847 21.7026 27.2234C20.8742 27.9624 19.8605 28.3316 18.6616 28.3316H9.22913V32.2325H18.6616C19.8605 32.2325 21.0003 32.0192 22.081 31.5931C23.1618 31.1668 24.1005 30.5984 24.8972 29.8878C25.694 29.1775 26.3247 28.3422 26.7905 27.3833C27.2552 26.4242 27.4885 25.3901 27.4885 24.2818V12.4729C27.4885 11.4072 27.2552 10.395 26.7905 9.43588C26.3247 8.47645 25.694 7.63116 24.8972 6.89894C24.1005 6.1673 23.1618 5.59871 22.081 5.19369C21.0003 4.78896 19.8605 4.58646 18.6616 4.58646H9.22913Z" fill="url(#paint2_linear_727_54853)"/>
<path d="M5.46631 21.2495H7.87435V18.8313H5.46631V21.2495Z" fill="url(#paint3_linear_727_54853)"/>
<path d="M2.68853 16.0969H4.4947V14.2834H2.68853V16.0969Z" fill="url(#paint4_linear_727_54853)"/>
<path d="M4.24946 8.9256V12.3873H7.33941L10.6098 15.3321V21.0313H16.523V15.0932H11.346L7.69663 11.8059V8.9256H4.24946Z" fill="url(#paint5_linear_727_54853)"/>
<defs>
<linearGradient id="paint0_linear_727_54853" x1="-10.4929" y1="18.7756" x2="92.5145" y2="18.6133" gradientUnits="userSpaceOnUse">
<stop stop-color="#00A4E5"/>
<stop offset="1" stop-color="#0870B9"/>
</linearGradient>
<linearGradient id="paint1_linear_727_54853" x1="-10.4932" y1="18.5462" x2="92.5142" y2="18.3839" gradientUnits="userSpaceOnUse">
<stop stop-color="#00A4E5"/>
<stop offset="1" stop-color="#0870B9"/>
</linearGradient>
<linearGradient id="paint2_linear_727_54853" x1="0.376303" y1="18.3344" x2="79.48" y2="18.7673" gradientUnits="userSpaceOnUse">
<stop stop-color="#00A4E5"/>
<stop offset="1" stop-color="#0870B9"/>
</linearGradient>
<linearGradient id="paint3_linear_727_54853" x1="4.3026" y1="20.0274" x2="14.7309" y2="20.0844" gradientUnits="userSpaceOnUse">
<stop stop-color="#00A4E5"/>
<stop offset="1" stop-color="#0870B9"/>
</linearGradient>
<linearGradient id="paint4_linear_727_54853" x1="1.81586" y1="15.1802" x2="9.63712" y2="15.223" gradientUnits="userSpaceOnUse">
<stop stop-color="#00A4E5"/>
<stop offset="1" stop-color="#0870B9"/>
</linearGradient>
<linearGradient id="paint5_linear_727_54853" x1="4.2166" y1="14.9513" x2="16.5558" y2="15.0188" gradientUnits="userSpaceOnUse">
<stop stop-color="#00A4E5"/>
<stop offset="1" stop-color="#0870B9"/>
</linearGradient>
</defs>
</svg>
