<svg width="20" height="20" viewBox="0 0 20 20" fill="none" xmlns="http://www.w3.org/2000/svg">
<path fill-rule="evenodd" clip-rule="evenodd" d="M10.0009 1.04135C6.19444 1.04135 3.10518 4.11741 3.10515 7.9163C3.10507 8.79992 3.0458 9.46684 2.63945 10.0663C2.58295 10.1484 2.50797 10.2513 2.42606 10.3637C2.28378 10.5589 2.12054 10.783 1.99672 10.977C1.77819 11.3194 1.56469 11.7323 1.49129 12.2135C1.25183 13.7832 2.3557 14.7996 3.45505 15.255C4.27348 15.594 5.15782 15.8614 6.0802 16.0571C6.5586 17.7408 8.14159 18.958 10.0001 18.958C11.8584 18.958 13.4413 17.741 13.9198 16.0575C14.8428 15.8617 15.7278 15.5942 16.5467 15.255C17.646 14.7996 18.7499 13.7832 18.5105 12.2135C18.4371 11.7323 18.2236 11.3194 18.005 10.977C17.8812 10.783 17.718 10.559 17.5757 10.3637C17.4938 10.2513 17.4188 10.1484 17.3624 10.0663C16.956 9.46688 16.8967 8.80003 16.8966 7.91635C16.8966 4.11744 13.8073 1.04135 10.0009 1.04135ZM4.35515 7.91635C4.35515 4.8117 6.88087 2.29135 10.0009 2.29135C13.1209 2.29135 15.6466 4.81175 15.6466 7.9164C15.6467 8.81843 15.6912 9.83025 16.3291 10.7699L16.3311 10.7728C16.436 10.9254 16.5281 11.0505 16.6149 11.1684C16.7305 11.3255 16.8367 11.4698 16.9513 11.6494C17.129 11.9279 17.2392 12.1692 17.2748 12.402C17.3897 13.1556 16.909 13.7519 16.0683 14.1001C12.5025 15.5773 7.49926 15.5773 3.93345 14.1001C3.09271 13.7519 2.61203 13.1556 2.727 12.402C2.76251 12.1692 2.87272 11.9279 3.05042 11.6494C3.16505 11.4698 3.27127 11.3255 3.38687 11.1684C3.47353 11.0507 3.56592 10.9251 3.67064 10.7728L3.67263 10.7699C4.31058 9.83025 4.35507 8.81838 4.35515 7.91635ZM12.47 16.3025C10.8462 16.5099 9.15378 16.5099 7.53004 16.3023C8.0063 17.1345 8.92799 17.708 10.0001 17.708C11.0721 17.708 11.9937 17.1346 12.47 16.3025Z" fill="#8E8E8E"/>
</svg>
